PathFileType	4	(X/Y/Z)	 2.2Hzhigh3min.trc
DataRate	CameraRate	NumFrames	NumMarkers	Units	OrigDataRate	OrigDataStartFrame	OrigNumFrames
200	200	8	39	m	200	376	1000
Frame#	Time	C7			LSH			RSH			MAN			RASI			LASI			HIPR			HIPL			RPSI			LPSI			COX			RTHI1			RTHI2			RTHI3			RTHI4			RLKN			RMKN			RSHA1			RSHA2			RSHA3			RSHA4			RHEEL			RMET5			RMET1			RTOE			LTHI1			LTHI2			LTHI3			LTHI4			LLKN			LMKN			LSHA1			LSHA2			LSHA3			LSHA4			LHEEL			LMET5			LMET1			LTOE			
		X1	Y1	Z1	X2	Y2	Z2	X3	Y3	Z3	X4	Y4	Z4	X5	Y5	Z5	X6	Y6	Z6	X7	Y7	Z7	X8	Y8	Z8	X9	Y9	Z9	X10	Y10	Z10	X11	Y11	Z11	X12	Y12	Z12	X13	Y13	Z13	X14	Y14	Z14	X15	Y15	Z15	X16	Y16	Z16	X17	Y17	Z17	X18	Y18	Z18	X19	Y19	Z19	X20	Y20	Z20	X21	Y21	Z21	X22	Y22	Z22	X23	Y23	Z23	X24	Y24	Z24	X25	Y25	Z25	X26	Y26	Z26	X27	Y27	Z27	X28	Y28	Z28	X29	Y29	Z29	X30	Y30	Z30	X31	Y31	Z31	X32	Y32	Z32	X33	Y33	Z33	X34	Y34	Z34	X35	Y35	Z35	X36	Y36	Z36	X37	Y37	Z37	X38	Y38	Z38	X39	Y39	Z39	
376	1.8800	-0.312451	1.482620	-0.515432	-0.276641	1.468330	-0.703011	-0.280080	1.474147	-0.338033	-0.156497	1.440700	-0.523505	-0.180346	0.962730	-0.401516	-0.183898	0.965304	-0.637490	-0.254994	1.037342	-0.349749	-0.249209	1.044345	-0.680684	-0.359757	1.021075	-0.480050	-0.358074	1.025997	-0.556724	-0.359847	1.020361	-0.517087	-0.276921	0.792090	-0.318922	-0.260500	0.736180	-0.308213	-0.198167	0.753857	-0.302327	-0.207959	0.813270	-0.313685	-0.230576	0.465244	-0.324556	-0.186284	0.457342	-0.440321	-0.315608	0.327006	-0.328941	-0.339386	0.293385	-0.342915	-0.286335	0.263768	-0.341011	-0.266482	0.297922	-0.331712	-0.423771	0.111263	-0.439760	-0.284279	0.033896	-0.349964	-0.224934	0.049046	-0.413116	-0.196432	0.037152	-0.408236	-0.294971	0.763923	-0.708908	-0.267912	0.709299	-0.720148	-0.211361	0.734951	-0.738000	-0.230152	0.791927	-0.729514	-0.221689	0.480132	-0.713478	-0.186607	0.467901	-0.595258	-0.341556	0.287588	-0.692084	-0.359540	0.253615	-0.679107	-0.303726	0.227566	-0.692053	-0.292711	0.268281	-0.704363	-0.428941	0.102633	-0.601265	-0.285023	0.036774	-0.695852	-0.228604	0.050271	-0.630823	-0.199189	0.036962	-0.639492	
377	1.8850	-0.313130	1.488635	-0.515410	-0.277478	1.474907	-0.702704	-0.280650	1.480539	-0.338281	-0.157293	1.447398	-0.523589	-0.178785	0.969004	-0.401466	-0.182444	0.971635	-0.637390	-0.252879	1.044058	-0.349943	-0.247716	1.051272	-0.680619	-0.358259	1.026969	-0.479833	-0.356614	1.031920	-0.556540	-0.358432	1.026139	-0.516902	-0.275888	0.798321	-0.319048	-0.259972	0.742222	-0.308570	-0.197438	0.759253	-0.303151	-0.206700	0.818882	-0.314386	-0.233780	0.470533	-0.325625	-0.189794	0.462358	-0.441716	-0.317780	0.331232	-0.329213	-0.341171	0.297279	-0.343084	-0.287840	0.268236	-0.340788	-0.268353	0.302646	-0.331634	-0.422791	0.114265	-0.438446	-0.283892	0.033998	-0.349831	-0.224821	0.049065	-0.413027	-0.196523	0.037199	-0.408317	-0.294393	0.770314	-0.708877	-0.267738	0.715453	-0.719869	-0.210742	0.740625	-0.737105	-0.229057	0.797765	-0.728781	-0.224863	0.485416	-0.712144	-0.190242	0.473155	-0.593631	-0.343313	0.291343	-0.691597	-0.360837	0.257107	-0.678727	-0.304801	0.231707	-0.692259	-0.294296	0.272602	-0.704331	-0.427797	0.105734	-0.602426	-0.284715	0.036903	-0.695864	-0.228457	0.050248	-0.630905	-0.199286	0.036974	-0.639371	
378	1.8900	-0.313807	1.494771	-0.515383	-0.278322	1.481616	-0.702357	-0.281242	1.487058	-0.338519	-0.158100	1.454220	-0.523656	-0.177233	0.975402	-0.401440	-0.181021	0.978106	-0.637290	-0.250789	1.050919	-0.350139	-0.246195	1.058343	-0.680527	-0.356761	1.033027	-0.479585	-0.355185	1.038000	-0.556316	-0.357043	1.032081	-0.516701	-0.274888	0.804694	-0.319201	-0.259489	0.748382	-0.308957	-0.196756	0.764751	-0.303935	-0.205489	0.824583	-0.315018	-0.236991	0.476031	-0.326698	-0.193339	0.467559	-0.443108	-0.319876	0.335609	-0.329342	-0.342854	0.301326	-0.343106	-0.289223	0.272895	-0.340468	-0.270133	0.307573	-0.331440	-0.421660	0.117468	-0.436924	-0.283451	0.034127	-0.349663	-0.224723	0.049095	-0.412928	-0.196645	0.037252	-0.408393	-0.293775	0.776843	-0.708868	-0.267520	0.721758	-0.719599	-0.210087	0.746439	-0.736243	-0.227964	0.803718	-0.728095	-0.228092	0.490921	-0.710855	-0.193805	0.478531	-0.592066	-0.344995	0.295291	-0.691218	-0.362065	0.260761	-0.678503	-0.305779	0.236067	-0.692616	-0.295802	0.277136	-0.704395	-0.426505	0.109063	-0.603696	-0.284371	0.037061	-0.695926	-0.228320	0.050246	-0.631041	-0.199416	0.036994	-0.639265	
379	1.8950	-0.314486	1.500978	-0.515351	-0.279162	1.488395	-0.701967	-0.281812	1.493639	-0.338775	-0.158778	1.461125	-0.523675	-0.175695	0.981887	-0.401446	-0.179637	0.984674	-0.637193	-0.248737	1.057894	-0.350319	-0.244674	1.065495	-0.680417	-0.355271	1.039215	-0.479313	-0.353774	1.044203	-0.556080	-0.355675	1.038161	-0.516484	-0.273920	0.811134	-0.319339	-0.259064	0.754614	-0.309372	-0.196132	0.770329	-0.304665	-0.204336	0.830346	-0.315563	-0.240167	0.481666	-0.327741	-0.196906	0.472902	-0.444486	-0.321870	0.340093	-0.329377	-0.344403	0.305490	-0.342981	-0.290456	0.277731	-0.340040	-0.271797	0.312679	-0.331160	-0.420360	0.120853	-0.435198	-0.282961	0.034283	-0.349456	-0.224636	0.049139	-0.412818	-0.196795	0.037309	-0.408445	-0.293137	0.783462	-0.708860	-0.267282	0.728161	-0.719325	-0.209434	0.752357	-0.735425	-0.226871	0.809799	-0.727495	-0.231338	0.496598	-0.709609	-0.197290	0.483984	-0.590571	-0.346533	0.299406	-0.690959	-0.363120	0.264586	-0.678423	-0.306627	0.240596	-0.693124	-0.297190	0.281861	-0.704570	-0.425041	0.112589	-0.605026	-0.283997	0.037248	-0.696039	-0.228193	0.050279	-0.631245	-0.199578	0.037024	-0.639188	
380	1.9000	-0.315160	1.507219	-0.515315	-0.279985	1.495196	-0.701535	-0.282393	1.500250	-0.339048	-0.159437	1.468060	-0.523665	-0.174175	0.988425	-0.401488	-0.178292	0.991302	-0.637104	-0.246741	1.064952	-0.350464	-0.243146	1.072674	-0.680278	-0.353795	1.045505	-0.479027	-0.352380	1.050501	-0.555841	-0.354324	1.044353	-0.516265	-0.273029	0.817609	-0.319550	-0.258697	0.760904	-0.309811	-0.195584	0.775957	-0.305336	-0.203210	0.836127	-0.316009	-0.243303	0.487422	-0.328728	-0.200484	0.478355	-0.445842	-0.323743	0.344656	-0.329300	-0.345797	0.309741	-0.342717	-0.291516	0.282687	-0.339505	-0.273323	0.317919	-0.330809	-0.418861	0.124405	-0.433292	-0.282425	0.034469	-0.349212	-0.224550	0.049213	-0.412676	-0.196972	0.037375	-0.408456	-0.292505	0.790148	-0.708839	-0.267049	0.734624	-0.719029	-0.208822	0.758333	-0.734659	-0.225845	0.815904	-0.726916	-0.234571	0.502402	-0.708396	-0.200683	0.489485	-0.589149	-0.347905	0.303646	-0.690801	-0.363990	0.268536	-0.678501	-0.307315	0.245265	-0.693785	-0.298428	0.286732	-0.704847	-0.423410	0.116267	-0.606416	-0.283602	0.037462	-0.696198	-0.228071	0.050359	-0.631520	-0.199765	0.037065	-0.639154	
381	1.9050	-0.315827	1.513453	-0.515272	-0.280775	1.501980	-0.701067	-0.282991	1.506836	-0.339305	-0.160135	1.474997	-0.523636	-0.172683	0.994979	-0.401557	-0.176986	0.997953	-0.637029	-0.244824	1.072055	-0.350561	-0.241633	1.079841	-0.680118	-0.352323	1.051866	-0.478743	-0.350998	1.056864	-0.555606	-0.352969	1.050630	-0.516041	-0.272184	0.824076	-0.319749	-0.258390	0.767205	-0.310270	-0.195119	0.781611	-0.305944	-0.202123	0.841886	-0.316348	-0.246411	0.493260	-0.329678	-0.204060	0.483888	-0.447169	-0.325473	0.349267	-0.329097	-0.347017	0.314030	-0.342314	-0.292384	0.287749	-0.338857	-0.274691	0.323264	-0.330354	-0.417151	0.128103	-0.431231	-0.281862	0.034687	-0.348935	-0.224460	0.049328	-0.412478	-0.197166	0.037452	-0.408403	-0.291894	0.796852	-0.708777	-0.266841	0.741113	-0.718695	-0.208277	0.764334	-0.733939	-0.224855	0.822035	-0.726408	-0.237770	0.508280	-0.707213	-0.203977	0.494995	-0.587797	-0.349095	0.307936	-0.690737	-0.364639	0.272511	-0.678694	-0.307813	0.250031	-0.694581	-0.299481	0.291719	-0.705220	-0.421596	0.120096	-0.607839	-0.283187	0.037707	-0.696391	-0.227937	0.050490	-0.631870	-0.199959	0.037117	-0.639180	
382	1.9100	-0.316482	1.519643	-0.515221	-0.281514	1.508711	-0.700572	-0.283543	1.513372	-0.339542	-0.160779	1.481895	-0.523568	-0.171233	1.001521	-0.401639	-0.175719	1.004595	-0.636974	-0.243014	1.079170	-0.350603	-0.240162	1.086980	-0.679951	-0.350858	1.058279	-0.478465	-0.349629	1.063260	-0.555387	-0.351615	1.056976	-0.515832	-0.271428	0.830517	-0.319979	-0.258160	0.773491	-0.310741	-0.194740	0.787259	-0.306500	-0.201180	0.847653	-0.316650	-0.249518	0.499146	-0.330624	-0.207619	0.489477	-0.448464	-0.327036	0.353910	-0.328788	-0.348045	0.318336	-0.341797	-0.293041	0.292881	-0.338107	-0.275883	0.328692	-0.329848	-0.415230	0.131950	-0.429055	-0.281271	0.034948	-0.348642	-0.224344	0.049499	-0.412208	-0.197365	0.037541	-0.408272	-0.291327	0.803557	-0.708667	-0.266684	0.747594	-0.718317	-0.207819	0.770305	-0.733275	-0.223956	0.828158	-0.725969	-0.240924	0.514185	-0.706050	-0.207188	0.500500	-0.586503	-0.350062	0.312263	-0.690744	-0.365109	0.276533	-0.679037	-0.308107	0.254866	-0.695498	-0.300336	0.296791	-0.705684	-0.419562	0.124058	-0.609279	-0.282759	0.037981	-0.696594	-0.227766	0.050692	-0.632296	-0.200142	0.037182	-0.639282	
383	1.9150	-0.317124	1.525758	-0.515163	-0.282195	1.515358	-0.700054	-0.284052	1.519810	-0.339795	-0.161307	1.488733	-0.523453	-0.169840	1.008018	-0.401726	-0.174487	1.011194	-0.636942	-0.241327	1.086253	-0.350599	-0.238740	1.094069	-0.679789	-0.349407	1.064723	-0.478211	-0.348275	1.069668	-0.555197	-0.350254	1.063376	-0.515638	-0.270756	0.836887	-0.320204	-0.258015	0.779721	-0.311224	-0.194463	0.792879	-0.306998	-0.200345	0.853397	-0.316889	-0.252616	0.505040	-0.331569	-0.211136	0.495102	-0.449725	-0.328425	0.358595	-0.328423	-0.348873	0.322645	-0.341183	-0.293481	0.298071	-0.337264	-0.276882	0.334175	-0.329309	-0.413081	0.136002	-0.426856	-0.280647	0.035264	-0.348339	-0.224173	0.049740	-0.411856	-0.197546	0.037640	-0.408051	-0.290829	0.810230	-0.708493	-0.266599	0.754047	-0.717893	-0.207475	0.776259	-0.732662	-0.223170	0.834265	-0.725574	-0.244017	0.520067	-0.704902	-0.210327	0.505989	-0.585248	-0.350798	0.316625	-0.690801	-0.365335	0.280566	-0.679452	-0.308196	0.259739	-0.696504	-0.300997	0.301919	-0.706223	-0.417285	0.128146	-0.610734	-0.282321	0.038291	-0.696789	-0.227527	0.050975	-0.632785	-0.200292	0.037261	-0.639467	
